<?xml version="1.0" encoding="UTF-8"?>
<svg width="108" height="30" version="1.1" viewBox="0 0 5303.9 1598.8" xmlns="http://www.w3.org/2000/svg">
 <rect x="-225.82" y="4.8828e-5" width="5755.6" height="1598.8" rx="221.37" fill="#fd0" stroke-width="106.58"/>
 <g fill="#fff">
  <g transform="matrix(.78416 0 0 .78416 272.96 297.92)" stroke-width="1.2752">
   <path d="m791.11 297.52-0.878-0.516-2.03-0.619c0.817 0.689 1.839 1.089 2.908 1.135z"/>
   <path d="m803.9 388.89-0.98 0.275z"/>
   <path d="m791.48 297.38c-0.125-0.016-0.247-0.045-0.366-0.087-7e-3 0.081-7e-3 0.163 0 0.244 0.134-0.018 0.261-0.072 0.366-0.157z"/>
   <path d="m791.11 297.53h0.131v-0.082z"/>
   <path d="m803.11 388.73 1.48-0.843 0.551-0.31 0.499-0.533c-0.939 0.404-1.795 0.976-2.53 1.686z"/>
   <path d="m793.67 299.52-1.446-1.377-0.98-0.533c0.527 0.93 1.398 1.616 2.426 1.91z"/>
   <path d="m430.02 1186.2c-1.155 0.5-2.167 1.28-2.943 2.27l0.912-0.58c0.62-0.57 1.497-1.24 2.031-1.69z"/>
   <path d="m641.19 1144.6c0-1.3-0.636-1.06-0.482 3.58 0-0.37 0.155-0.75 0.224-1.11 0.086-0.83 0.155-1.64 0.258-2.47z"/>
   <path d="m619.28 1186.2c-1.155 0.5-2.166 1.28-2.942 2.27l0.912-0.58c0.619-0.57 1.497-1.24 2.03-1.69z"/>
   <path d="m281.3 1196.1c-0.877-0.76-1.95-1.26-3.097-1.45 0.929 0.45 1.858 0.9 2.477 1.24z"/>
   <path d="m247.84 1164c-0.137-1.35-0.553-2.66-1.222-3.85 0.474 1.23 0.87 2.5 1.187 3.78z"/>
  </g>
  <path class="logo-coffee" d="m643.56 761.23c-36.025 15.422-76.908 32.908-129.9 32.908-22.165-0.0439-44.223-3.0849-65.574-9.0398l36.646 376.25c1.297 15.722 8.4611 30.386 20.069 41.074 11.608 10.688 26.811 16.616 42.59 16.616 0 0 51.96 2.6975 69.298 2.6975 18.66 0 74.614-2.6975 74.614-2.6975 15.777 0 30.977-5.936 42.582-16.624 11.606-10.688 18.767-25.344 20.064-41.066l39.25-415.76c-17.54-5.9902-35.242-9.9706-55.198-9.9706-34.514-0.0133-62.323 11.874-94.444 25.622z" stroke-width="1.4815"/>
  <path d="m334.66 600.7 0.62058 0.58028 0.40486 0.24309c-0.3117-0.30975-0.65548-0.58577-1.0254-0.82337z" stroke-width="1.4815"/>
 </g>
 <path class="logo-outline" d="m962.68 565.98-5.5181-27.835c-4.952-24.975-16.191-48.573-41.827-57.6-8.2172-2.8881-17.541-4.1286-23.842-10.106-6.3007-5.9769-8.1631-15.26-9.6201-23.868-2.6991-15.8-5.235-31.613-8.0016-47.386-2.3878-13.56-4.2768-28.794-10.497-41.233-8.0957-16.704-24.894-26.472-41.598-32.935-8.5591-3.1951-17.294-5.8981-26.162-8.0957-41.733-11.01-85.614-15.057-128.55-17.365-51.532-2.8435-103.2-1.9868-154.61 2.5636-38.265 3.4811-78.565 7.6908-114.93 20.927-13.29 4.8438-26.985 10.659-37.091 20.927-12.4 12.616-16.448 32.125-7.3946 47.858 6.4364 11.172 17.339 19.065 28.902 24.287 15.061 6.7281 30.791 11.848 46.927 15.274 44.93 9.9306 91.464 13.829 137.37 15.489 50.876 2.0529 101.83 0.38894 152.46-4.9794 12.521-1.3762 25.02-3.0268 37.496-4.9512 14.694-2.2537 24.125-21.467 19.794-34.852-5.1817-16.002-19.106-22.208-34.851-19.793-2.3211 0.36385-4.6281 0.70104-6.9492 1.0382l-1.6726 0.24309c-5.3346 0.67516-10.668 1.3041-16.002 1.889-11.019 1.1872-22.065 2.1588-33.138 2.9147-24.8 1.7267-49.666 2.5226-74.519 2.5634-24.422 0-48.857-0.68849-73.225-2.2937-11.118-0.72848-22.209-1.6554-33.273-2.7798-5.0327-0.52618-10.052-1.079-15.071-1.7001l-4.7771-0.60694-1.0382-0.14821-4.952-0.71515c-10.12-1.5252-20.239-3.2786-30.25-5.3974-1.01-0.22427-1.9141-0.78572-2.5618-1.5932-0.64772-0.80706-1.0006-1.8109-1.0006-2.8457s0.35287-2.0387 1.0006-2.8458c0.64771-0.80713 1.5518-1.3691 2.5618-1.5933h0.18898c8.6759-1.8484 17.419-3.4271 26.189-4.8034 2.9241-0.45873 5.8561-0.90844 8.7975-1.3492h0.0808c5.4915-0.36432 11.01-1.3493 16.474-1.9969 47.544-4.9453 95.369-6.6312 143.14-5.0462 23.193 0.67469 46.374 2.0374 69.459 4.3851 4.9653 0.51276 9.9039 1.0525 14.842 1.6596 1.889 0.22945 3.7914 0.4992 5.6946 0.72864l3.8314 0.55315c11.172 1.6641 22.285 3.6835 33.34 6.0582 16.38 3.562 37.415 4.7224 44.701 22.668 2.3211 5.6938 3.3734 12.022 4.6548 17.999l1.6334 7.6236c0.0423 0.13645 0.0737 0.27681 0.0941 0.41796 3.8588 17.99 7.7224 35.98 11.59 53.971 0.28387 1.3292 0.29014 2.7022 0.0196 4.0337-0.27054 1.3323-0.81239 2.5932-1.5926 3.7067-0.77945 1.1127-1.7808 2.0529-2.9398 2.7618-1.1598 0.70888-2.4521 1.1708-3.7985 1.3582h-0.10823l-2.3611 0.32385-2.3336 0.30975c-7.3946 0.96294-14.797 1.8624-22.209 2.6991-14.599 1.664-29.221 3.1029-43.864 4.3176-29.099 2.4191-58.257 4.0071-87.473 4.763-14.886 0.39522-29.769 0.58028-44.647 0.55284-59.219-0.0463-118.38-3.4887-177.21-10.309-6.3689-0.75514-12.737-1.5652-19.106-2.3878 4.9386 0.63438-3.5891-0.48618-5.3158-0.72849-4.0478-0.56694-8.0957-1.1558-12.143-1.7675-13.587-2.038-27.093-4.5473-40.653-6.7469-16.394-2.6983-32.072-1.3488-46.9 6.7469-12.172 6.6606-22.023 16.874-28.24 29.279-6.3955 13.222-8.298 27.619-11.159 41.827-2.8604 14.207-7.313 29.495-5.6264 44.08 3.6295 31.478 25.636 57.06 57.29 62.781 29.778 5.3966 59.718 9.7683 89.739 13.492 117.93 14.443 237.07 16.171 355.37 5.1543 9.6334-0.89943 19.253-1.8796 28.86-2.9414 3.001-0.32934 6.0372 0.0157 8.8869 1.0116 2.8496 0.99588 5.4405 2.6167 7.5828 4.7434 2.1423 2.1266 3.7812 4.7057 4.7975 7.5475 1.017 2.8426 1.3848 5.8765 1.0766 8.879l-2.9955 29.117c-6.0357 58.836-12.071 117.67-18.107 176.5-6.296 61.778-12.634 123.55-19.011 185.32-1.7989 17.4-3.5977 34.793-5.3966 52.178-1.7275 17.126-1.9698 34.785-5.2217 51.707-5.1276 26.606-23.14 42.948-49.423 48.924-24.08 5.4813-48.679 8.3591-73.373 8.5787-27.377 0.149-54.739-1.0665-82.117-0.9175-29.226 0.1647-65.021-2.5328-87.583-24.285-19.821-19.102-22.56-49.018-25.259-74.887-3.5977-34.244-7.1641-68.481-10.7-102.72l-19.834-190.37-12.831-123.18c-0.21643-2.0372-0.43207-4.0478-0.63438-6.0992-1.5385-14.693-11.941-29.076-28.335-28.334-14.032 0.62027-29.98 12.548-28.334 28.334l9.5118 91.315 19.672 188.9c5.6044 53.655 11.195 107.32 16.772 161 1.0798 10.28 2.0914 20.592 3.2245 30.872 6.1666 56.185 49.073 86.461 102.21 94.985 31.033 4.9951 62.821 6.0223 94.311 6.532 40.37 0.6509 81.145 2.2035 120.85-5.1127 58.842-10.798 102.99-50.084 109.29-111.03 1.7996-17.596 3.5985-35.193 5.3974-52.797 5.9816-58.217 11.954-116.44 17.918-174.66l19.511-190.24 8.9457-87.191c0.4454-4.3238 2.2709-8.3889 5.2068-11.594 2.9351-3.2049 6.8245-5.3801 11.092-6.2035 16.825-3.2786 32.909-8.8782 44.877-21.683 19.051-20.387 22.843-46.967 16.11-73.763zm-632.93 18.809c0.25634-0.12155-0.21588 2.0772-0.41827 3.1029-0.0405-1.5518 0.0405-2.928 0.41827-3.1029zm1.6326 12.629c0.13495-0.0949 0.53966 0.4454 0.95793 1.0931-0.63415-0.5944-1.0389-1.039-0.97142-1.0931zm1.6056 2.118c0.5802 0.98491 0.89049 1.606 0 0zm3.2247 2.6175h0.0809c0 0.0949 0.14845 0.18899 0.2024 0.28387-0.0895-0.10429-0.18883-0.19918-0.29681-0.28387zm564.69-3.913c-6.0443 5.7479-15.152 8.4195-24.152 9.7557-100.92 14.977-203.32 22.559-305.35 19.213-73.022-2.496-145.27-10.606-217.56-20.819-7.0839-0.99824-14.761-2.2937-19.632-7.5154-9.1747-9.8498-4.6684-29.684-2.2803-41.584 2.1858-10.902 6.3686-25.433 19.335-26.985 20.239-2.3744 43.743 6.1658 63.766 9.2021 24.107 3.6785 48.303 6.6246 72.59 8.8375 103.65 9.4452 209.04 7.9741 312.24-5.842 18.809-2.5281 37.549-5.4648 56.223-8.8108 16.637-2.9822 35.081-8.581 45.133 8.6485 6.8943 11.739 7.8118 27.444 6.7461 40.707-0.32856 5.7785-2.8536 11.213-7.0566 15.192z" fill="#0d0c23" stroke-width="1.4815"/>
 <g transform="scale(.84775 1.1796)" fill="#0d0c23" stroke-width="53.292" aria-label="Buy me a coffe">
  <path d="m1720.1 880.21h-133.95q-29.002 0-41.559-12.856-12.258-13.155-12.258-41.559v-329.48q0-29.002 12.558-41.559 12.856-12.856 41.26-12.856h142.02q31.394 0 54.416 3.8868 23.022 3.8868 41.26 14.949 15.547 9.2686 27.507 23.62 11.959 14.052 18.238 31.394 6.2787 17.042 6.2787 36.177 0 65.777-65.777 96.274 86.407 27.507 86.407 107.04 0 36.775-18.836 66.375-18.836 29.301-50.828 43.353-20.032 8.3716-46.044 11.959-26.012 3.2889-60.694 3.2889zm-6.5778-194.64h-92.387v127.97h95.377q89.995 0 89.995-64.88 0-33.188-23.321-48.137-23.321-14.949-69.664-14.949zm-92.387-177v113.32h81.324q33.188 0 51.127-6.2787 18.238-6.2787 27.806-23.919 7.4746-12.557 7.4746-28.105 0-33.188-23.62-43.951-23.62-11.063-72.056-11.063z" color="#000000" style="-inkscape-stroke:none"/>
  <path d="m2179.3 841.64v-10.465q-14.65 18.537-30.796 31.095-16.145 12.557-35.28 18.537-19.135 6.2787-43.652 6.2787-29.6 0-53.22-12.258-23.321-12.258-36.177-33.786-15.248-26.012-15.248-74.747v-161.75q0-24.517 11.062-36.476 11.062-12.258 29.301-12.258 18.537 0 29.899 12.258t11.362 36.476v130.66q0 28.404 4.7838 47.838 4.7838 19.135 17.042 30.198 12.558 10.764 33.786 10.764 20.63 0 38.868-12.258t26.61-31.992q6.8767-17.341 6.8767-75.943v-99.264q0-24.218 11.362-36.476t29.6-12.258 29.301 12.258q11.062 11.959 11.062 36.476v236.5q0 23.321-10.764 34.981-10.464 11.66-27.208 11.66-16.743 0-27.806-11.959-10.764-12.258-10.764-34.084z" color="#000000" style="-inkscape-stroke:none"/>
  <path d="m2412.3 897.85 7.4747-18.238-100.46-252.94q-9.2685-21.826-9.2685-31.693 0-10.465 5.3817-19.434 5.3818-8.9696 14.65-14.351 9.5675-5.3818 19.733-5.3818 17.64 0 26.61 11.362 8.9696 11.063 15.846 31.992l69.066 200.92 65.478-186.87q7.7737-22.723 14.052-35.579 6.2787-12.856 13.155-17.341 7.1757-4.4848 20.032-4.4848 9.2686 0 17.64 5.0828 8.6707 4.7838 13.156 13.155 4.7837 8.3716 4.7837 17.64-1.1959 5.6808-3.8868 16.145t-6.5777 21.228l-106.44 278.66q-13.753 36.775-26.909 57.704t-34.982 31.992q-21.527 11.362-58.302 11.362-35.878 0-53.818-7.7737-17.939-7.7736-17.939-28.404 0-14.052 8.3716-21.826 8.6706-7.4747 25.414-7.4747 6.5777 0 12.856 1.7939 7.7737 1.7939 13.454 1.7939 14.052 0 22.125-4.1858 8.0727-4.1858 14.351-14.65 6.5777-10.166 14.949-30.198z" color="#000000" style="-inkscape-stroke:none"/>
  <path d="m3093.9 727.72v108.53q0 25.713-11.66 38.569-11.66 12.856-30.796 12.856-18.537 0-30.198-12.856-11.362-12.856-11.362-38.569v-130.06q0-30.796-2.0929-47.838-2.0929-17.042-11.362-27.806-9.2686-11.063-29.301-11.063-40.064 0-52.921 27.507-12.557 27.507-12.557 78.933v110.33q0 25.414-11.66 38.569-11.362 12.856-30.198 12.856-18.537 0-30.497-12.856-11.66-13.155-11.66-38.569v-233.51q0-23.022 10.464-34.981 10.764-11.959 28.105-11.959 16.743 0 27.806 11.362 11.362 11.063 11.362 30.796v7.7736q21.228-25.414 45.446-37.373 24.218-11.959 53.818-11.959 30.796 0 52.921 12.258 22.125 12.258 36.476 37.074 20.63-25.115 44.25-37.074 23.62-12.258 52.323-12.258 33.486 0 57.704 13.155 24.218 13.155 36.177 37.672 10.464 22.125 10.464 69.664v159.36q0 25.713-11.66 38.569-11.66 12.856-30.796 12.856-18.537 0-30.497-12.856-11.66-13.155-11.66-38.569v-137.23q0-26.311-2.3919-42.157-2.0929-15.846-11.959-26.61-9.8666-10.764-29.899-10.764-16.145 0-30.796 9.5676-14.351 9.5676-22.424 25.713-8.9696 20.63-8.9696 72.953z" color="#000000" style="-inkscape-stroke:none"/>
  <path d="m3592.1 741.78h-159.66q0.299 27.806 11.062 49.034 11.063 21.228 29.002 31.992 18.238 10.764 40.064 10.764 14.65 0 26.61-3.2888 12.258-3.5878 23.62-10.764 11.362-7.4747 20.929-15.846 9.5675-8.3716 24.816-22.723 6.2787-5.3818 17.939-5.3818 12.557 0 20.331 6.8767 7.7736 6.8767 7.7736 19.434 0 11.063-8.6706 26.012-8.6706 14.65-26.311 28.404-17.341 13.454-43.951 22.424-26.311 8.9696-60.694 8.9696-78.634 0-122.29-44.848-43.652-44.848-43.652-121.69 0-36.177 10.764-66.973 10.764-31.095 31.394-53.22 20.63-22.125 50.828-33.786 30.198-11.959 66.973-11.959 47.838 0 81.922 20.331 34.384 20.032 51.426 52.024 17.042 31.992 17.042 65.179 0 30.796-17.64 40.064-17.64 8.9696-49.632 8.9696zm-159.66-46.343h148q-2.9899-41.858-22.723-62.488-19.434-20.929-51.426-20.929-30.497 0-50.23 21.228-19.434 20.929-23.62 62.189z" color="#000000" style="-inkscape-stroke:none"/>
  <path d="m4087.2 841.64q-29.6 23.022-57.405 34.682-27.507 11.362-61.89 11.362-31.394 0-55.313-12.258-23.62-12.557-36.476-33.786-12.856-21.228-12.856-46.044 0-33.487 21.228-57.106 21.228-23.62 58.302-31.693 7.7737-1.7939 38.569-8.0726 30.796-6.2787 52.622-11.362 22.125-5.3818 47.838-12.856-1.495-32.291-13.156-47.24-11.362-15.248-47.539-15.248-31.095 0-46.941 8.6706-15.547 8.6706-26.909 26.012-11.062 17.341-15.846 23.022-4.4848 5.3818-19.733 5.3818-13.753 0-23.919-8.6706-9.8665-8.9696-9.8665-22.723 0-21.527 15.248-41.858 15.248-20.331 47.539-33.487t80.427-13.155q53.818 0 84.613 12.856 30.796 12.557 43.353 40.064 12.856 27.507 12.856 72.953 0 28.703-0.299 48.735 0 20.032-0.2989 44.549 0 23.022 7.4746 48.137 7.7737 24.816 7.7737 31.992 0 12.557-11.96 23.022-11.66 10.166-26.61 10.166-12.558 0-24.816-11.66-12.258-11.959-26.012-34.383zm-5.3817-118.1q-17.939 6.5777-52.323 14.052-34.084 7.1757-47.24 10.764-13.156 3.2888-25.115 13.454-11.96 9.8666-11.96 27.806 0 18.537 14.052 31.693 14.052 12.856 36.775 12.856 24.218 0 44.549-10.465 20.63-10.764 30.198-27.507 11.062-18.537 11.062-60.993z" color="#000000" style="-inkscape-stroke:none"/>
  <path d="m4690.2 786.63q0 15.248-9.2686 32.59-8.9696 17.341-27.806 33.188-18.537 15.547-46.941 25.115-28.404 9.5676-63.983 9.5676-75.644 0-118.1-43.951-42.456-44.25-42.456-118.4 0-50.23 19.434-88.799 19.434-38.569 56.21-59.498 36.775-21.228 87.902-21.228 31.693 0 58.003 9.2686 26.61 9.2686 44.848 23.919 18.537 14.65 28.105 31.394 9.8666 16.444 9.8666 30.796 0 14.65-11.062 24.816-10.764 10.166-26.311 10.166-10.166 0-17.042-5.0828-6.5777-5.3818-14.949-17.042-14.949-22.723-31.394-34.084-16.145-11.362-41.26-11.362-36.177 0-58.302 28.404-22.125 28.105-22.125 77.139 0 23.022 5.6807 42.456 5.6808 19.135 16.444 32.889 10.764 13.454 26.012 20.63 15.248 6.8767 33.486 6.8767 24.517 0 41.858-11.362 17.64-11.362 31.095-34.682 7.4746-13.753 16.145-21.527 8.6706-7.7737 21.228-7.7737 14.949 0 24.816 11.362 9.8666 11.362 9.8666 24.218z" color="#000000" style="-inkscape-stroke:none"/>
  <path d="m5066.7 721.74q0 36.476-11.362 67.272-11.362 30.796-32.889 52.921-21.527 22.125-51.426 34.084-29.899 11.66-67.272 11.66-37.074 0-66.674-11.959-29.6-11.959-51.426-34.084-21.527-22.424-32.889-52.622-11.062-30.497-11.062-67.272 0-37.074 11.362-67.87t32.59-52.622q21.228-21.826 51.426-33.487 30.198-11.959 66.674-11.959 37.074 0 67.272 11.959 30.198 11.959 51.725 34.084 21.527 22.125 32.59 52.622 11.362 30.497 11.362 67.272zm-81.922 0q0-49.931-22.125-77.737-21.826-27.806-58.9-27.806-23.919 0-42.157 12.557-18.238 12.258-28.105 36.476-9.8666 24.218-9.8666 56.509 0 31.992 9.5676 55.911 9.8666 23.919 27.806 36.775 18.238 12.557 42.755 12.557 37.074 0 58.9-27.806 22.125-28.105 22.125-77.438z" color="#000000" style="-inkscape-stroke:none"/>
  <path d="m5124.1 562.98h19.434v-24.517q0-38.27 9.5676-60.694 9.8666-22.723 32.889-32.889 23.321-10.465 63.684-10.465 71.458 0 71.458 34.981 0 11.362-7.4747 19.434-7.4746 8.0726-17.64 8.0726-4.7838 0-16.444-1.7939-11.66-1.7939-19.733-1.7939-22.125 0-28.404 13.155-6.2787 12.856-6.2787 37.074v19.434h20.032q46.642 0 46.642 28.105 0 20.032-12.557 25.414-12.258 5.3818-34.084 5.3818h-20.032v216.17q0 24.218-11.66 37.074-11.362 12.557-29.6 12.557-17.341 0-29.002-12.557-11.362-12.856-11.362-37.074v-216.17h-22.424q-18.238 0-28.105-8.0726-9.8666-8.3716-9.8666-21.527 0-29.301 40.961-29.301z" color="#000000" style="-inkscape-stroke:none"/>
  <path d="m5351.9 562.98h19.434v-24.517q0-38.27 9.5676-60.694 9.8666-22.723 32.889-32.889 23.321-10.465 63.684-10.465 71.458 0 71.458 34.981 0 11.362-7.4747 19.434-7.4746 8.0726-17.64 8.0726-4.7838 0-16.444-1.7939t-19.733-1.7939q-22.125 0-28.404 13.155-6.2788 12.856-6.2788 37.074v19.434h20.032q46.642 0 46.642 28.105 0 20.032-12.558 25.414-12.258 5.3818-34.084 5.3818h-20.032v216.17q0 24.218-11.66 37.074-11.362 12.557-29.6 12.557-17.341 0-29.002-12.557-11.362-12.856-11.362-37.074v-216.17h-22.424q-18.238 0-28.105-8.0726-9.8666-8.3716-9.8666-21.527 0-29.301 40.961-29.301z" color="#000000" style="-inkscape-stroke:none"/>
  <path d="m5782.6 741.78h-159.66q0.299 27.806 11.062 49.034 11.062 21.228 29.002 31.992 18.238 10.764 40.064 10.764 14.65 0 26.61-3.2888 12.258-3.5878 23.62-10.764 11.362-7.4747 20.929-15.846 9.5676-8.3716 24.816-22.723 6.2788-5.3818 17.939-5.3818 12.557 0 20.331 6.8767 7.7736 6.8767 7.7736 19.434 0 11.063-8.6706 26.012-8.6706 14.65-26.311 28.404-17.341 13.454-43.951 22.424-26.311 8.9696-60.694 8.9696-78.634 0-122.29-44.848-43.652-44.848-43.652-121.69 0-36.177 10.764-66.973 10.764-31.095 31.394-53.22 20.63-22.125 50.828-33.786 30.198-11.959 66.973-11.959 47.838 0 81.922 20.331 34.384 20.032 51.426 52.024 17.042 31.992 17.042 65.179 0 30.796-17.64 40.064-17.64 8.9696-49.632 8.9696zm-159.66-46.343h148q-2.9899-41.858-22.723-62.488-19.434-20.929-51.426-20.929-30.497 0-50.23 21.228-19.434 20.929-23.62 62.189z" color="#000000" style="-inkscape-stroke:none"/>
 </g>
</svg>
